<?xml version="1.0" standalone="no"?><!DOCTYPE svg PUBLIC "-//W3C//DTD SVG 1.1//EN" "http://www.w3.org/Graphics/SVG/1.1/DTD/svg11.dtd"><svg t="1767081086470" class="icon" viewBox="0 0 1024 1024" version="1.1" xmlns="http://www.w3.org/2000/svg" p-id="48129" xmlns:xlink="http://www.w3.org/1999/xlink" width="200" height="200"><path d="M986.645333 519.637333a13.248 13.248 0 0 0-11.541333-6.72h-31.232l23.338667-97.792c20.053333 6.784 28.181333-18.048 9.493333-22.826666-27.541333-3.370667-56.448-14.058667-75.050667-30.293334-37.546667-31.296-51.584-87.957333-42.304-165.034666 2.624-45.717333-63.274667-53.44-71.232-8.149334-29.376 230.826667-308.992 317.098667-474.474666 167.104-45.205333-42.154667-74.389333-99.946667-84.352-167.168-2.730667-19.093333-21.12-33.024-40.234667-30.293333-19.370667 2.538667-33.066667 20.48-30.890667 39.765333 12.693333 111.914667-20.245333 180.352-117.461333 194.069334-18.645333 4.736-10.666667 29.525333 9.450667 22.826666l23.36 97.792H42.304c-10.026667-0.32-16.832 11.797333-11.285333 20.202667 10.090667 16.362667 12.672 24.149333 12.010666 36.202667a13.226667 13.226667 0 0 0 3.626667 9.813333c-1.216 8.981333 154.261333 2.112 159.210667 4.138667l21.717333 175.402666c-16.661333 0.426667-31.104 12.373333-34.496 28.714667l-4.352 20.586667a11.989333 11.989333 0 0 0-6.848 2.389333c-22.186667 16.682667-46.741333 16.426667-77.376-0.853333-19.84-8.448-21.205333 29.909333-73.749333 0a12.010667 12.010667 0 0 0-11.818667 20.885333c31.466667 17.813333 58.666667 19.072 80.896 3.797333 33.429333 16.746667 63.786667 16.597333 90.389333-0.426666 30.805333 13.781333 62.506667 13.866667 92.373334-0.192 19.072 9.642667 38.357333 8.469333 58.581333-0.533334 34.368 12.8 65.834667 13.034667 93.674667 0.704 20.693333 12.288 42.922667 12.266667 66.261333-0.085333 19.050667 9.002667 39.210667 8.896 60.117333-0.32 24.981333 11.818667 49.024 11.946667 71.68 0.362667 39.168 21.098667 82.837333 20.074667 122.773334 0.256 20.544 12.586667 44.416 9.877333 72.64-0.725334 22.698667 12.032 49.92 11.946667 82.88-0.213333 25.258667 11.52 48.896 10.538667 70.336-2.901333a11.989333 11.989333 0 1 0-12.757334-20.330667c-15.36 9.642667-32.213333 9.493333-51.498666-0.490667a11.946667 11.946667 0 0 0-9.962667-0.490666c-30.72 12.245333-53.418667 12.586667-71.530667 1.066666a12.16 12.16 0 0 0-7.104-1.877333l-4.330666-20.586667a36.394667 36.394667 0 0 0-34.517334-28.736l21.717334-175.402666c5.888-2.005333 160.170667 4.714667 159.104-4.053334a13.184 13.184 0 0 0 3.690666-9.664c-0.448-13.333333 3.2-21.696 12.117334-36.586666a13.269333 13.269333 0 0 0 0.192-13.333334h-0.021334z m-105.173333-6.72l20.992-120.789333a161.856 161.856 0 0 0 41.322667 17.856l-24.576 102.933333H881.493333z m-0.512-137.216l-23.829333 137.216H820.266667l24.106666-194.56c8.042667 22.912 20.266667 42.069333 36.586667 57.344z m-55.808-193.450666c6.4 0.832 11.029333 6.784 10.24 13.141333l-40.106667 323.776a13.226667 13.226667 0 0 0-1.365333 11.093333l-4.053333 32.768a13.269333 13.269333 0 0 0-1.386667 11.072l-22.869333 184.533334h-34.389334l25.813334-181.354667a13.312 13.312 0 0 0 1.578666-11.136l4.672-32.746667a13.269333 13.269333 0 0 0 1.578667-11.114666l46.976-330.026667a11.946667 11.946667 0 0 1 13.290667-10.026667l0.021333 0.021334zM281.642667 556.8l-2.474667-17.365333h459.008l-2.474667 17.365333H281.642667z m81.557333-137.173333l11.050667 93.312h-36.416l-16.32-119.189334c13.056 9.728 27.008 18.368 41.685333 25.898667z m66.133333 24.874666l5.802667 68.437334h-36.693333l-9.685334-81.621334a316.373333 316.373333 0 0 0 40.576 13.205334v-0.021334z m199.296-13.205333l-9.706666 81.621333h-36.693334l5.781334-68.437333a312.277333 312.277333 0 0 0 40.618666-13.205333v0.021333z m67.2-37.546667l-16.32 119.168h-36.437333l11.093333-93.290666c14.570667-7.466667 28.501333-16.128 41.664-25.877334z m-137.706666 119.168h-37.461334V453.973333a325.696 325.696 0 0 0 42.816-4.373333l-5.354666 63.296z m-61.461334 0h-37.461333l-5.354667-63.296c14.122667 2.389333 28.437333 3.861333 42.816 4.373334v58.922666z m274.133334-202.517333l-28.842667 202.517333h-38.208l19.498667-142.442666a284.544 284.544 0 0 0 47.573333-60.074667h-0.042667z m-476.672 60.074667l19.498666 142.442666h-38.229333l-28.8-202.517333a284.522667 284.522667 0 0 0 47.530667 60.074667zM192.170667 182.229333a11.925333 11.925333 0 0 1 13.354666 9.941334l46.954667 330.112a13.290667 13.290667 0 0 0 1.578667 11.093333l4.672 32.746667a13.333333 13.333333 0 0 0 1.578666 11.114666l25.813334 181.354667H251.733333L228.906667 574.08a13.312 13.312 0 0 0-1.386667-11.093333l-4.053333-32.746667a13.226667 13.226667 0 0 0-1.386667-11.114667L181.952 195.349333a11.904 11.904 0 0 1 10.24-13.12z m-19.157334 136.042667l24.106667 194.602667H160.256l-23.829333-137.237334c16.32-15.296 28.522667-34.432 36.586666-57.386666v0.021333zM73.6 409.941333a161.877333 161.877333 0 0 0 41.322667-17.856l20.970666 120.789334H98.154667L73.6 409.941333z m-4.586667 146.794667a68.906667 68.906667 0 0 0-4.693333-17.365333h136.106667l2.176 17.365333H68.992zM308.608 816.213333a36.394667 36.394667 0 0 1-19.029333-6.336 12.010667 12.010667 0 0 0-12.202667-0.554666c-21.290667 11.306667-42.816 13.888-65.856 6.805333l5.013333-23.829333a12.224 12.224 0 0 1 11.946667-9.685334h71.445333c8.64-0.213333 18.986667-1.002667 21.418667 9.706667l4.416 21.013333c-6.08 2.176-11.733333 3.136-17.130667 2.88h-0.021333z m317.909333-6.506666c-38.528 22.741333-55.509333-6.997333-70.677333-0.426667-37.589333 19.413333-46.08-7.552-61.269333 0.426667-19.648 12.074667-35.626667 12.224-51.818667 0.490666a11.946667 11.946667 0 0 0-12.608-0.896c-23.381333 12.288-49.770667 12.672-80.426667 1.237334l-4.906666-23.168a36.373333 36.373333 0 0 0-34.432-28.736l-24.96-175.402667h446.506666l-24.96 175.402667c-35.861333 2.389333-35.2 35.776-41.514666 62.506666a120.106667 120.106667 0 0 1-26.602667-11.605333 12.032 12.032 0 0 0-12.330667 0.149333z m174.314667-17.386667l4.864 23.082667c-39.253333 11.392-38.464-13.141333-54.634667-6.058667-21.12 11.029333-39.978667 16.554667-61.930666 15.786667l6.912-32.810667a12.288 12.288 0 0 1 11.946666-9.706667h80.896c5.738667 0 10.773333 4.096 11.946667 9.728z m147.690667-235.562667h-133.696l2.133333-17.365333h136.32c-2.282667 5.674667-3.904 11.306667-4.757333 17.365333z" p-id="48130" fill="#1296db"></path></svg>