<?xml version="1.0" standalone="no"?><!DOCTYPE svg PUBLIC "-//W3C//DTD SVG 1.1//EN" "http://www.w3.org/Graphics/SVG/1.1/DTD/svg11.dtd"><svg t="1767081140433" class="icon" viewBox="0 0 1024 1024" version="1.1" xmlns="http://www.w3.org/2000/svg" p-id="51055" xmlns:xlink="http://www.w3.org/1999/xlink" width="200" height="200"><path d="M830 289.6L955.6 164c5.8-5.8 5.8-15.3 0-21.1-2.8-2.8-6.6-4.4-10.6-4.4h-59.7V78.8c0-8.2-6.7-14.9-14.9-14.9-4 0-7.8 1.6-10.6 4.4L734.2 193.7c-60.9-42.8-132.9-67-207.2-69.6V63.9h-29.9V124c-202.5 8-364.8 170.3-372.8 372.8H64.2v29.9h60.1c3.5 92.5 40.1 180.7 103.1 248.6l-51 51-84.9 14.2c-6.3 1.1-11.2 6-12.3 12.3l-14.9 89.6c-1.4 8.1 4.1 15.8 12.3 17.2 0.8 0.1 1.6 0.2 2.4 0.2s1.6-0.1 2.5-0.2l89.6-14.9c6.3-1.1 11.2-6 12.3-12.3l14.2-84.9 51-51c67.8 63 156 99.6 248.6 103.1v60.1H527v-60.1c202.5-8 364.8-170.3 372.8-372.8h60.1v-29.9h-60.3c-2.6-74.5-26.8-146.5-69.6-207.3zM155.7 916.7l-58.4 9.7L107 868l58.4-9.7-9.7 58.4z m714-419.9H765.1c-3.3-56.8-25.7-110.9-63.6-153.4l10.8-10.8h68.5c4 0 7.8-1.6 10.6-4.4l17.2-17.2c37.4 55 58.6 119.3 61.1 185.8z m-283 14.9c0.1 41.4-33.3 75-74.6 75.1-41.3 0.1-75-33.3-75.1-74.6-0.1-41.3 33.3-75 74.6-75.1 14.8 0 29.2 4.3 41.5 12.4l-51.7 51.7 21.1 21.1 51.6-51.7c8.3 12.2 12.6 26.5 12.6 41.1z m-12.2-83.6a104.56 104.56 0 0 0-47.5-19.7V288.6c48.9 3.2 95.4 22.5 132.3 54.8l-84.8 84.7z m-77.4-19.7c-45.8 6.7-81.7 42.6-88.4 88.4H288.9c7.6-111.7 96.5-200.6 208.2-208.2v119.8z m-88.3 118.2c6.7 45.8 42.6 81.7 88.4 88.4v119.9c-111.7-7.6-200.6-96.5-208.2-208.2h119.8zM527 615c45.8-6.7 81.7-42.6 88.4-88.4h119.9c-7.6 111.7-96.5 200.6-208.2 208.2V615z m88.4-118.2c-2.5-17.2-9.3-33.6-19.7-47.5l84.7-84.7c32.3 36.9 51.6 83.4 54.8 132.3H615.4z m254.9-328.4h38.6L774.6 302.7h-53.5v-53.5l134.4-134.4v38.6c-0.1 8.3 6.6 15 14.8 15z m-157.5 46.9l-17.2 17.2c-2.8 2.8-4.4 6.6-4.4 10.6v68.5l-10.8 10.8c-42.5-37.9-96.5-60.3-153.4-63.6V154c66.4 2.6 130.8 23.8 185.8 61.3z m-215.7-61.5v104.9C368.9 266.4 266.7 368.6 259 496.8H154.2c7.9-186 156.9-335 342.9-343zM154.2 526.6H259c7.7 128.2 109.9 230.4 238.1 238.1v104.9c-186-8-335-157-342.9-343z m372.8 343V764.7c128.2-7.7 230.4-109.9 238.1-238.1H870c-8 186-157 335-343 343z m0 0" p-id="51056" fill="#bdb403"></path></svg>