<?xml version="1.0" standalone="no"?><!DOCTYPE svg PUBLIC "-//W3C//DTD SVG 1.1//EN" "http://www.w3.org/Graphics/SVG/1.1/DTD/svg11.dtd"><svg t="1767080676498" class="icon" viewBox="0 0 1024 1024" version="1.1" xmlns="http://www.w3.org/2000/svg" p-id="29974" xmlns:xlink="http://www.w3.org/1999/xlink" width="200" height="200"><path d="M596.48 411.648c0-19.456-15.872-35.328-35.328-35.328s-35.328 15.872-35.328 35.328V645.12c0 19.456 15.872 35.328 35.328 35.328 19.456 0 35.328-15.872 35.328-35.328V411.648zM561.152 707.584c-15.872 0-28.672 12.8-28.672 28.672v50.688c0 15.36 12.8 27.648 28.16 27.648h1.024c15.36 0 28.16-12.8 28.16-28.672v-50.176c0-15.36-12.8-28.16-28.672-28.16z" p-id="29975" fill="#d81e06"></path><path d="M591.872 859.648H203.264l358.4-656.896 152.576 281.088c8.704 16.896 29.184 23.04 47.616 14.336 16.896-8.704 23.04-29.184 14.336-47.616l-182.784-338.944c-6.656-10.752-18.432-17.408-31.744-17.408-12.288 0-24.576 6.656-31.744 17.408L113.152 877.056c-5.12 11.264-5.12 24.064 0 35.328 7.168 10.752 18.944 17.408 31.744 17.408H591.872c18.432-1.024 32.768-16.384 32.768-35.328 0-18.432-14.336-33.792-32.768-34.816z" p-id="29976" fill="#d81e06"></path><path d="M906.24 663.04l-96.768-96.768c-5.632-7.68-14.848-12.288-24.064-12.288-9.728 0-18.944 4.608-24.064 12.288l-93.696 95.744c-5.632 5.12-8.704 12.8-8.704 20.48s3.072 14.848 8.704 20.48c10.24 9.728 25.088 11.776 37.376 5.632l1.024-0.512 52.224-53.76v244.224c-1.024 10.752 4.096 21.504 13.312 27.136 4.608 3.072 9.728 4.608 15.36 4.608s10.752-1.536 15.36-4.608c9.216-5.632 14.336-16.384 13.312-27.136v-245.248l50.688 50.176c5.12 5.632 12.8 9.216 20.48 9.216s14.848-3.072 19.968-8.704c5.12-5.12 8.704-12.8 8.704-20.48-0.512-7.68-3.584-14.848-9.216-20.48z" p-id="29977" fill="#d81e06"></path></svg>