<?xml version="1.0" standalone="no"?><!DOCTYPE svg PUBLIC "-//W3C//DTD SVG 1.1//EN" "http://www.w3.org/Graphics/SVG/1.1/DTD/svg11.dtd"><svg t="1767078085716" class="icon" viewBox="0 0 1024 1024" version="1.1" xmlns="http://www.w3.org/2000/svg" p-id="9085" xmlns:xlink="http://www.w3.org/1999/xlink" width="200" height="200"><path d="M50.74 437.426L512 68.418l461.26 369.008a29.868 29.868 0 0 0 18.72 6.576c8.8 0 17.522-3.856 23.446-11.262 10.352-12.938 8.254-31.816-4.686-42.166l-480-384a29.996 29.996 0 0 0-37.48 0l-480 384c-12.94 10.35-15.038 29.228-4.686 42.166 10.35 12.938 29.23 15.042 42.166 4.686zM0 994c0 16.568 13.432 30 30 30h964c16.568 0 30-13.432 30-30v-64H0zM752 60h10v54.744l120 96V60h10c16.568 0 30-13.432 30-30s-13.432-30-30-30h-140c-16.568 0-30 13.432-30 30s13.432 30 30 30zM542 600h122v270h-122zM360 600h122v270h-122zM994 750H754c-16.568 0-30 13.432-30 30v90h60v-60h60v60h60v-60h60v60h60v-90c0-16.568-13.432-30-30-30zM60 810h60v60h60v-60h60v60h60v-90c0-16.568-13.432-30-30-30H30c-16.568 0-30 13.432-30 30v90h60z" p-id="9086" fill="#f46929"></path><path d="M754 690h150V458.856l-392-313.6-392 313.6V690h150c10.518 0 20.61 1.83 30 5.16V600c0-33.136 26.864-60 60-60h334c16.568 0 30 13.432 30 30v125.186A89.476 89.476 0 0 1 754 690z" p-id="9087" fill="#f46929"></path></svg>