<?xml version="1.0" standalone="no"?><!DOCTYPE svg PUBLIC "-//W3C//DTD SVG 1.1//EN" "http://www.w3.org/Graphics/SVG/1.1/DTD/svg11.dtd"><svg t="1767077731244" class="icon" viewBox="0 0 1083 1024" version="1.1" xmlns="http://www.w3.org/2000/svg" p-id="3753" xmlns:xlink="http://www.w3.org/1999/xlink" width="211.5234375" height="200"><path d="M692.071 895.025l-38.614-15.602c-36.535-14.822-83.73-14.822-120.395 0l-38.614 15.602c-17.682 7.15-44.335 7.15-61.887 0l-38.615-15.602c-36.534-14.822-83.73-14.822-120.394 0l-50.446 20.412a39.03 39.03 0 0 0-21.582 50.836 39.135 39.135 0 0 0 50.836 21.583l50.445-20.412c17.683-7.151 44.206-7.151 61.888 0l38.614 15.601c18.332 7.411 39.265 11.052 60.197 11.052s41.865-3.64 60.197-11.052l38.615-15.601c17.682-7.151 44.205-7.151 61.887 0l38.615 15.601c20.022 8.061 42.645-1.56 50.836-21.582 8.06-20.023-1.56-42.775-21.583-50.836zM444.132 746.547l-38.614-13.781c-35.625-12.742-81.65-12.742-117.404 0l-50.446 18.072a38.888 38.888 0 0 0-23.533 49.796c7.28 20.282 29.514 30.943 49.796 23.533l50.446-18.073c18.462-6.63 46.415-6.63 64.877 0l38.615 13.782c17.812 6.37 38.224 9.621 58.637 9.621 20.412 0 40.825-3.25 58.637-9.62l38.614-13.783c3.9-1.43 8.321-2.47 13.262-3.38 21.192-3.64 35.494-23.793 31.854-44.985a39.005 39.005 0 0 0-44.986-31.854 159.862 159.862 0 0 0-26.393 6.76l-38.614 13.782c-18.463 6.761-46.286 6.761-64.748 0.13z m57.727-149.907c-15.732 5.2-39.525 5.2-55.387 0l-33.804-11.051c-31.593-10.402-72.418-10.402-104.012 0l-44.075 14.431a39.2 39.2 0 0 0-24.963 49.276 39.2 39.2 0 0 0 49.276 24.963l44.075-14.432c15.732-5.2 39.525-5.2 55.387 0l33.803 11.052c15.732 5.2 33.934 7.8 52.007 7.8s36.144-2.6 52.006-7.8a39.2 39.2 0 0 0 24.963-49.276 39.148 39.148 0 0 0-49.276-24.963zM302.805 523.18h102.583c21.582 0 39.004-17.422 39.004-39.004s-17.422-39.005-39.004-39.005H302.805c-21.582 0-39.004 17.422-39.004 39.005s17.422 39.004 39.004 39.004z" p-id="3754" fill="#13227a"></path><path d="M430.87 350.001h2.21l439.712 4.55c21.583 0.65 39.135-17.031 39.395-38.614s-17.032-39.135-38.615-39.395l-92.57-0.91-91.921-83.86L857.32 88.93l158.488 171.62a39.064 39.064 0 0 0 28.733 12.612c9.492 0 18.983-3.38 26.393-10.401a39.03 39.03 0 0 0 2.21-55.127l-180.2-195.023a39.16 39.16 0 0 0-49.016-6.89L629.014 137.036l-36.665-33.414c-9.75-8.84-23.272-12.221-36.014-8.97L416.7 130.664 354.942 75.02c-13.002-11.702-32.244-13.262-47.066-3.9l-84.25 53.566L159.4 73.589c-14.432-11.572-35.104-11.312-49.276 0.52l-96.081 80.22a39.109 39.109 0 0 0-4.94 54.996 39.109 39.109 0 0 0 54.996 4.94l71.638-59.807L260.94 254.05c7.15 5.72 15.731 8.45 24.312 8.45 11.442 0 22.883-5.07 30.554-14.691 13.392-16.902 10.661-41.345-6.24-54.866l-21.193-16.902 36.534-23.273 52.656 47.455 56.037 71.769c-131.316-1.3-247.94 86.07-283.823 212.315L11.83 968.614a39.148 39.148 0 0 0 37.445 49.795c17.032 0 32.634-11.181 37.444-28.343l137.816-484.177C250.8 413.84 335.44 350.001 430.87 350.001z m233.118-75.539l-130.796-1.43-59.677-76.579 81.91-21.062 108.563 99.071z" p-id="3755" fill="#13227a"></path><path d="M1038.562 394.596l-401.617-5.59h-1.56c-40.825 0-77.49 22.492-96.212 58.766a107.614 107.614 0 0 0 9.361 113.764c0.65 0.78 1.3 1.69 1.95 2.47l389.006 446.602a38.953 38.953 0 0 0 54.997 3.77 38.94 38.94 0 0 0 3.77-54.996L610.422 514.08c-9.102-13.261-4.421-25.743-1.82-30.683 2.6-5.07 10.27-16.772 27.303-16.382l401.617 5.59c21.062-0.26 39.264-16.902 39.524-38.484a39.213 39.213 0 0 0-38.484-39.525z" p-id="3756" fill="#13227a"></path></svg>