<?xml version="1.0" standalone="no"?><!DOCTYPE svg PUBLIC "-//W3C//DTD SVG 1.1//EN" "http://www.w3.org/Graphics/SVG/1.1/DTD/svg11.dtd"><svg t="1767078228498" class="icon" viewBox="0 0 1035 1024" version="1.1" xmlns="http://www.w3.org/2000/svg" p-id="13905" xmlns:xlink="http://www.w3.org/1999/xlink" width="202.1484375" height="200"><path d="M299.568807 959.030401H162.932903a97.965366 97.965366 0 0 1-97.965366-97.449759V721.851094A32.483253 32.483253 0 0 0 0.001031 721.851094v138.698334a161.900657 161.900657 0 0 0 162.931872 162.416264h136.635904a32.483253 32.483253 0 0 0 0-64.966506z m703.288205-268.631345a32.483253 32.483253 0 0 0-32.483253 32.483253v138.698333a97.965366 97.965366 0 0 1-97.965366 97.449759h-136.635905a32.483253 32.483253 0 1 0 0 64.966505h136.635905a161.900657 161.900657 0 0 0 162.931871-162.416264V721.851094a32.483253 32.483253 0 0 0-32.483252-31.452038zM32.484284 333.598882a32.483253 32.483253 0 0 0 32.483253-31.452039v-139.21394a98.480973 98.480973 0 0 1 97.965366-97.965366h136.635904a32.483253 32.483253 0 0 0 0-64.966506H162.932903A162.416264 162.416264 0 0 0 0.001031 162.932903v138.182726a32.483253 32.483253 0 0 0 32.483253 32.483253zM872.408393 0.001031h-136.635905a32.99886 32.99886 0 0 0-32.99886 32.483253 32.99886 32.99886 0 0 0 32.99886 32.483253h136.635905a98.480973 98.480973 0 0 1 97.965366 97.965366v138.182726a32.483253 32.483253 0 0 0 64.966505 0V162.932903A162.416264 162.416264 0 0 0 872.408393 0.001031zM471.266001 574.903046a37.639325 37.639325 0 0 0-37.123718 37.639324 24.749145 24.749145 0 0 1-25.264752 24.749145 37.639325 37.639325 0 0 0 0 75.27865 99.512187 99.512187 0 0 0 100.027795-100.027795 37.639325 37.639325 0 0 0-37.639325-37.639324zM721.851094 866.736714a103.121438 103.121438 0 0 0 65.99772 23.717931 95.38733 95.38733 0 0 0 64.966506-25.264753 7.734108 7.734108 0 0 0 4.640465-5.156071 86.622008 86.622008 0 0 0 23.71793-63.419685 91.262472 91.262472 0 0 0-29.389609-62.388469l-41.248575-46.404647-3.093644-2.578036a33.514467 33.514467 0 0 0-40.21736 8.249715l-39.186146 44.342218a87.653222 87.653222 0 0 0-28.358396 63.419684A89.715651 89.715651 0 0 0 721.851094 866.221107z m51.560719-85.590793v-2.578036l18.046252-20.10868 22.171109 22.686716a27.842788 27.842788 0 0 1 0 39.701753 40.217361 40.217361 0 0 1-48.467076 0 25.780359 25.780359 0 0 1-7.734108-19.593073 29.38961 29.38961 0 0 1 15.983823-20.10868z m103.121438-360.925032a10.312144 10.312144 0 0 0 6.702893-7.2185 139.213941 139.213941 0 0 0-9.280929-196.961946l-63.419684-68.575756s-5.671679-3.60925-7.734108-5.671679a48.467076 48.467076 0 0 0-64.966506 12.89018l-63.419684 68.060148a138.182726 138.182726 0 0 0-44.857825 98.99658 142.307584 142.307584 0 0 0 41.248575 103.121438A154.682156 154.682156 0 0 0 773.411813 464.0475a143.854405 143.854405 0 0 0 103.121438-41.248575z m-177.368873-93.324901a65.99772 65.99772 0 0 1 25.264752-51.560718l5.156072-5.67168 44.342218-51.560718 54.654362 54.654362a69.60697 69.60697 0 0 1 5.156072 98.480972 100.027794 100.027794 0 0 1-114.980403 0 63.935291 63.935291 0 0 1-19.593073-44.342218zM562.012866 406.299495c-13.921394-15.983823-27.842788-32.99886-41.248575-51.560719s-27.842788-33.514467-41.764182-51.560718a446.515825 446.515825 0 0 1-19.593073-24.233538 529.528582 529.528582 0 0 0-40.217361-46.920254 77.341078 77.341078 0 0 0-29.905217-21.655502 41.248575 41.248575 0 0 0-42.279789 18.046251c-29.905217 29.905217-60.326041 66.513327-89.200044 103.121438-9.796537 11.858965-19.593073 24.233538-29.905217 36.092503L196.44737 412.486782c-106.215081 126.323761-107.761902 275.849846-3.609251 372.268389a266.053309 266.053309 0 0 0 186.649803 76.825471 270.178166 270.178166 0 0 0 190.259052-76.825471 235.116878 235.116878 0 0 0 73.731828-191.290267A321.738885 321.738885 0 0 0 567.168938 412.486782z m-46.404647 328.957386a199.024375 199.024375 0 0 1-137.151512 55.685576 210.367733 210.367733 0 0 1-141.276369-55.685576c-77.341078-73.216221-72.185006-179.946909 13.405787-278.427881L287.194235 412.486782l48.467076-55.16997 44.342218-51.560718a339.785137 339.785137 0 0 1 22.171109 28.358395l7.734108 10.312144H412.486782c24.233538 24.233538 46.404647 51.560719 67.544541 75.794256l29.38961 34.545682c62.38847 79.403507 92.809294 199.024375 6.187286 280.49031z" fill="#0ac6d4" p-id="13906"></path></svg>